<?xml version="1.0" standalone="no"?>
<!DOCTYPE svg PUBLIC "-//W3C//DTD SVG 20010904//EN"
 "http://www.w3.org/TR/2001/REC-SVG-20010904/DTD/svg10.dtd">
<svg version="1.0" xmlns="http://www.w3.org/2000/svg"
 width="64.000000pt" height="64.000000pt" viewBox="0 0 64.000000 64.000000"
 preserveAspectRatio="xMidYMid meet">
<metadata>
Created by potrace 1.14, written by Peter Selinger 2001-2017
</metadata>
<g transform="translate(0.000000,64.000000) scale(0.100000,-0.100000)"
fill="#000000" stroke="none">
<path d="M420 601 c0 -23 5 -41 10 -41 6 0 10 11 10 23 0 13 3 26 6 30 12 12
34 -6 34 -28 0 -14 11 -30 27 -40 25 -17 27 -17 39 0 11 15 14 14 27 -12 10
-19 12 -34 6 -45 -12 -22 -1 -94 17 -109 8 -6 14 -8 15 -3 1 5 4 -2 8 -16 9
-31 3 -60 -14 -60 -18 0 -41 -88 -27 -102 8 -8 7 -19 -5 -39 -15 -24 -18 -26
-28 -12 -11 14 -14 14 -38 -2 -16 -10 -27 -27 -27 -39 0 -15 -7 -22 -20 -23
-11 -1 -20 4 -20 12 0 8 -4 17 -10 20 -6 4 -10 -6 -10 -23 0 -25 4 -30 30 -34
31 -5 57 13 46 31 -4 5 1 17 10 26 15 14 18 15 34 0 16 -14 19 -12 43 24 22
33 25 44 16 63 -12 28 4 80 23 76 9 -2 14 15 16 60 3 56 1 62 -17 62 -25 0
-37 52 -22 91 8 22 5 33 -16 64 -24 35 -27 37 -39 21 -18 -25 -49 -6 -49 31 0
25 -4 28 -37 31 l-38 3 0 -40z"/>
<path d="M420 460 l0 -60 -63 0 c-73 0 -97 -17 -97 -68 0 -40 23 -62 65 -62
34 0 49 -17 36 -39 -5 -8 -28 -11 -67 -9 l-59 3 -2 59 c-1 33 -7 70 -14 83
-16 30 -56 41 -76 20 -14 -14 -18 -14 -39 0 -14 9 -32 12 -44 8 -36 -11 -48
-59 -49 -199 -1 -71 -4 -133 -7 -138 -10 -15 6 -58 21 -58 18 0 28 34 19 63
-4 12 -7 77 -7 145 1 123 9 152 39 152 27 0 37 -41 32 -131 -6 -100 1 -124 29
-95 17 17 17 18 -5 11 -20 -6 -23 -4 -20 12 2 10 9 17 15 16 8 -2 11 22 9 73
-2 77 11 114 39 114 24 0 35 -35 35 -109 l0 -71 80 0 c87 0 100 8 100 68 0 36
-28 62 -67 62 -33 0 -49 20 -30 39 6 6 37 11 69 11 l58 0 0 -91 c0 -68 3 -90
13 -86 7 2 12 22 12 50 -1 26 1 47 2 47 2 0 16 -20 32 -45 22 -35 31 -42 39
-32 8 9 2 26 -23 62 l-33 50 29 36 c16 20 29 40 29 43 0 15 -31 3 -48 -19 -25
-31 -29 -19 -27 78 1 50 -2 67 -12 67 -9 0 -13 -17 -13 -60z m-380 -420 c0
-11 -7 -20 -15 -20 -8 0 -15 9 -15 20 0 11 7 20 15 20 8 0 15 -9 15 -20z"/>
</g>
</svg>
