<?xml version="1.0" standalone="no"?>
<!DOCTYPE svg PUBLIC "-//W3C//DTD SVG 20010904//EN"
 "http://www.w3.org/TR/2001/REC-SVG-20010904/DTD/svg10.dtd">
<svg version="1.0" xmlns="http://www.w3.org/2000/svg"
 width="1666.000000pt" height="1666.000000pt" viewBox="0 0 1666.000000 1666.000000"
 preserveAspectRatio="xMidYMid meet">
<metadata>
Created by potrace 1.14, written by Peter Selinger 2001-2017
</metadata>
<g transform="translate(0.000000,1666.000000) scale(0.100000,-0.100000)"
fill="#000000" stroke="none">
<path d="M3474 16585 c-39 -7 -109 -27 -156 -44 -46 -17 -89 -31 -95 -31 -6 0
-57 -31 -114 -69 -104 -69 -223 -175 -270 -240 -13 -19 -36 -48 -51 -65 -15
-17 -40 -56 -55 -86 -15 -30 -31 -57 -34 -60 -3 -3 -19 -32 -34 -65 -16 -33
-32 -62 -36 -65 -3 -3 -19 -45 -34 -95 -17 -58 -37 -101 -55 -120 -15 -16 -34
-43 -43 -60 -27 -55 -97 -288 -107 -355 -5 -37 -8 -181 -5 -321 4 -282 9 -313
81 -459 54 -112 182 -297 222 -322 18 -11 43 -35 55 -53 40 -59 170 -229 212
-277 23 -25 67 -100 99 -165 32 -65 62 -126 67 -136 16 -30 66 -185 98 -302
19 -71 30 -135 30 -180 1 -70 32 -212 99 -445 135 -471 164 -578 328 -1230
231 -911 296 -1174 339 -1370 98 -447 157 -653 365 -1280 86 -259 238 -796
294 -1037 l14 -63 -150 -76 c-83 -42 -186 -86 -229 -99 -44 -13 -123 -49 -177
-79 -54 -30 -131 -64 -172 -75 -41 -12 -106 -36 -145 -55 -38 -19 -117 -55
-175 -81 -58 -26 -199 -94 -315 -150 -115 -57 -253 -122 -305 -144 -52 -23
-121 -55 -152 -71 -31 -17 -62 -30 -69 -30 -7 0 -44 -15 -83 -34 -39 -19 -114
-54 -166 -77 -121 -53 -550 -268 -654 -326 -43 -25 -122 -66 -175 -92 -53 -26
-123 -63 -156 -82 -33 -19 -93 -48 -133 -66 -40 -18 -127 -65 -193 -105 -66
-40 -139 -84 -162 -97 -23 -13 -57 -35 -75 -48 -30 -23 -32 -28 -27 -66 4 -23
8 -44 10 -48 2 -3 7 -21 10 -40 3 -19 8 -41 10 -49 4 -17 11 -61 25 -160 5
-36 13 -92 19 -125 6 -33 12 -78 15 -100 8 -72 67 -469 71 -475 2 -3 6 -26 10
-50 3 -25 12 -79 20 -120 7 -41 16 -97 19 -125 3 -27 10 -72 15 -100 5 -27 12
-84 16 -125 4 -41 9 -77 10 -80 2 -3 6 -33 10 -65 12 -119 26 -229 55 -435 10
-74 22 -169 25 -210 4 -41 8 -77 10 -80 5 -8 19 -154 30 -305 4 -44 10 -114
15 -155 5 -41 12 -97 15 -125 8 -71 25 -194 32 -235 3 -19 6 -88 7 -152 1
-109 3 -118 25 -142 26 -28 76 -35 110 -16 26 13 167 -13 251 -47 19 -7 49
-16 65 -18 17 -2 50 -11 74 -19 24 -9 46 -14 48 -12 3 3 23 -2 44 -9 22 -8 57
-16 78 -19 21 -2 55 -12 75 -20 21 -9 40 -15 44 -14 4 1 27 -4 52 -11 25 -7
72 -19 105 -28 33 -8 76 -22 95 -30 19 -9 62 -19 95 -23 97 -13 123 -18 146
-30 11 -7 35 -14 53 -16 17 -2 56 -8 86 -14 81 -17 90 -18 145 -25 73 -8 96
-14 112 -30 18 -18 43 -19 97 -3 51 15 57 23 50 73 -4 30 4 65 31 145 20 58
64 188 97 289 33 102 66 194 74 206 8 12 32 75 54 140 22 64 44 122 49 129 5
6 19 45 31 86 12 41 30 86 40 100 9 14 28 57 40 95 13 39 29 79 36 90 7 11 18
40 24 65 6 25 17 54 24 65 7 11 19 38 26 60 7 22 22 58 35 80 12 22 28 58 35
80 7 22 19 49 26 60 8 11 14 26 14 35 0 9 8 32 19 53 10 20 29 66 42 102 12
36 26 65 30 65 5 0 16 25 25 55 15 48 21 55 43 55 46 0 74 23 95 76 47 116 61
127 226 189 35 13 187 75 248 101 18 8 37 14 42 14 5 0 43 16 84 35 41 19 79
35 83 35 5 0 58 21 118 46 61 25 130 54 155 64 56 22 74 29 183 76 48 20 88
35 90 33 2 -2 22 -87 46 -189 24 -102 68 -270 98 -375 83 -289 109 -404 163
-716 57 -327 69 -390 110 -549 18 -68 30 -140 30 -178 0 -37 12 -112 29 -180
37 -144 44 -178 137 -637 65 -321 79 -375 104 -413 16 -24 34 -69 40 -100 43
-215 157 -590 233 -768 19 -44 41 -104 50 -134 12 -42 36 -78 96 -150 43 -53
99 -112 124 -131 25 -19 60 -55 79 -79 l34 -45 1584 0 1585 0 27 55 c16 30 40
78 55 105 16 28 31 68 35 90 4 22 11 60 16 85 6 25 15 68 20 96 16 75 13 288
-4 364 -45 197 -153 393 -278 507 -25 23 -85 69 -133 104 -48 35 -89 67 -91
71 -2 4 -10 8 -18 8 -8 0 -14 5 -14 10 0 6 -5 10 -11 10 -7 0 -19 8 -28 18 -9
10 -45 40 -80 67 -120 93 -243 228 -277 304 -11 25 -28 73 -38 106 -40 136
-47 161 -53 175 -3 8 -7 20 -9 25 -1 6 -21 71 -43 145 -34 118 -96 348 -107
404 -2 10 -8 33 -13 50 -11 33 -60 250 -68 301 -2 17 -9 46 -14 65 -5 19 -19
82 -29 140 -11 58 -29 143 -40 190 -11 47 -31 141 -45 209 -14 69 -32 150 -39
180 -7 31 -21 92 -31 136 -9 44 -35 150 -57 235 -22 85 -42 166 -44 180 -7 36
-107 429 -155 605 -22 83 -43 161 -45 175 -3 14 -7 32 -10 40 -3 8 -16 53 -29
100 -13 47 -33 117 -45 155 -12 39 -33 110 -46 159 -14 49 -27 93 -29 96 -8
14 21 37 63 50 23 7 47 19 53 27 6 7 19 13 29 13 9 0 32 8 51 17 19 10 42 19
53 20 10 2 30 10 45 17 61 33 139 66 154 66 9 0 18 4 21 9 3 5 18 12 33 16 27
6 62 21 169 71 28 13 58 24 67 24 9 0 18 4 21 9 3 5 18 12 33 16 16 3 48 16
73 27 94 43 127 57 195 83 67 25 110 43 165 70 14 7 43 18 65 25 22 7 45 16
50 20 6 4 21 11 35 15 14 4 52 20 85 35 109 50 133 60 144 60 6 0 26 9 46 20
19 11 35 17 35 15 0 -3 21 6 47 20 27 14 52 25 56 25 5 0 23 6 40 14 18 8 63
26 102 41 38 15 78 33 90 40 11 7 31 16 45 20 14 4 43 15 65 25 116 49 219 93
298 124 194 79 263 108 282 116 11 5 49 22 85 38 36 16 92 39 125 51 33 13 85
34 115 49 30 14 64 29 75 33 131 52 183 73 255 104 47 20 97 40 112 45 15 5
45 17 65 28 62 31 104 49 178 77 39 15 88 35 110 45 22 10 56 22 75 25 19 4
85 27 145 51 97 38 223 70 250 63 6 -1 23 3 39 10 16 6 30 10 30 9 1 -2 10
-16 20 -32 l18 -28 27 26 c15 15 30 24 32 21 3 -2 22 0 42 6 l36 10 79 -83
c44 -46 121 -128 173 -182 52 -55 146 -154 210 -220 64 -67 143 -150 175 -185
33 -35 75 -81 94 -102 64 -68 383 -400 547 -568 307 -315 432 -446 500 -527
23 -27 69 -80 103 -119 83 -94 91 -107 96 -157 9 -84 113 -130 175 -78 82 69
104 105 96 162 -6 41 -49 108 -71 108 -31 0 -62 48 -93 145 -18 55 -35 114
-38 130 -4 17 -9 37 -12 45 -8 18 -6 15 -22 70 -7 25 -14 50 -15 57 -1 7 -5
16 -9 19 -4 4 -7 14 -7 23 0 9 -24 90 -54 181 -29 91 -65 206 -80 255 -15 50
-45 144 -67 210 -22 66 -54 165 -71 220 -36 117 -29 97 -84 255 -24 69 -73
215 -109 325 -37 110 -70 209 -74 220 -27 65 -44 111 -72 200 -18 55 -37 114
-44 130 -7 17 -18 48 -25 70 -6 22 -15 49 -20 60 -39 89 -50 120 -50 136 0 10
-4 21 -10 24 -5 3 -10 17 -10 30 0 13 -4 26 -9 30 -5 3 -13 20 -17 38 -3 17
-12 45 -19 62 -7 16 -23 55 -35 85 -24 58 -44 104 -92 209 l-29 64 31 38 c30
38 30 38 9 49 -11 7 -23 10 -25 7 -3 -2 -34 3 -69 13 -60 16 -65 16 -80 0 -8
-9 -15 -25 -15 -35 0 -20 -9 -19 -178 14 -29 6 -62 16 -73 22 -11 6 -23 8 -26
5 -3 -2 -17 0 -31 5 -14 5 -37 11 -51 13 -14 3 -51 10 -81 16 -30 7 -65 13
-77 15 -46 7 -130 24 -213 45 -37 9 -106 25 -177 41 -24 5 -63 14 -88 19 -83
18 -130 28 -190 40 -33 7 -76 18 -95 25 -41 15 -124 35 -144 35 -8 0 -27 5
-42 10 -26 10 -26 11 -8 31 21 23 10 51 -22 55 -10 1 -43 7 -73 13 -72 15 -71
15 -83 -19 -9 -26 -14 -30 -42 -27 -17 2 -49 9 -71 15 -89 24 -140 36 -147 34
-4 -1 -26 5 -49 13 -23 9 -44 13 -47 11 -2 -3 -16 0 -31 5 -14 6 -42 13 -61
15 -19 2 -48 9 -65 14 -16 5 -48 13 -70 19 -22 5 -60 15 -85 22 -25 6 -58 13
-73 15 -16 2 -33 6 -38 9 -7 5 -64 17 -144 30 -11 2 -54 13 -95 25 -41 12 -86
23 -100 24 -14 2 -43 8 -65 14 -44 12 -101 25 -185 42 -72 15 -127 29 -170 42
-19 6 -48 13 -63 14 -16 2 -32 6 -37 9 -5 3 -30 10 -57 15 -83 17 -157 31
-186 36 -16 2 -33 6 -38 9 -4 3 -25 8 -45 11 -21 2 -42 8 -48 13 -6 5 -27 11
-46 14 -52 9 -175 35 -265 57 -27 7 -68 16 -90 22 -22 5 -55 14 -73 20 -19 5
-44 11 -55 13 -12 2 -47 9 -77 15 -30 7 -64 13 -75 14 -11 2 -31 5 -45 8 -14
4 -52 12 -85 18 -33 7 -76 17 -95 23 -19 6 -44 11 -55 13 -11 1 -33 7 -50 13
-16 5 -52 14 -80 20 -27 5 -63 13 -80 16 l-30 7 35 13 c35 13 31 20 -14 27
-34 5 -18 22 42 44 78 30 162 72 162 83 0 13 122 68 280 126 64 23 125 47 155
61 17 8 73 30 125 49 52 20 113 44 135 55 74 35 113 50 127 50 8 0 18 4 24 8
5 5 25 15 44 22 19 7 58 23 85 35 28 13 79 35 115 50 36 15 88 37 115 49 28
13 77 34 110 48 107 46 279 120 329 142 27 11 52 21 55 21 3 0 51 20 106 43
55 24 123 52 150 64 28 11 68 29 90 39 22 10 83 35 135 55 52 20 113 44 135
54 101 46 135 60 145 60 9 0 35 11 135 56 28 12 75 32 105 44 30 12 78 32 105
44 61 28 149 65 235 101 36 15 83 35 105 46 22 10 72 30 110 45 39 14 79 31
90 38 18 10 66 30 175 71 19 7 68 27 108 44 84 36 114 38 149 11 34 -26 59
-25 111 5 41 23 48 24 100 14 32 -5 69 -12 83 -13 14 -2 36 -9 48 -16 13 -6
25 -9 28 -6 3 2 17 0 31 -5 14 -5 37 -12 51 -14 34 -5 125 -23 176 -34 61 -14
146 -32 186 -40 19 -4 40 -11 46 -14 7 -4 35 -12 65 -18 29 -6 73 -15 98 -21
25 -5 54 -11 65 -13 11 -2 45 -9 75 -15 30 -5 72 -13 93 -16 20 -4 37 -10 37
-15 0 -8 33 -16 105 -23 22 -2 47 -7 55 -10 8 -3 29 -8 45 -10 17 -3 68 -12
115 -21 47 -9 117 -23 155 -30 39 -8 90 -18 115 -24 68 -15 88 -20 175 -36 44
-8 103 -20 130 -26 28 -6 64 -12 80 -14 17 -2 42 -8 56 -13 15 -6 29 -8 32 -6
3 3 16 0 29 -7 12 -7 41 -16 63 -20 22 -4 60 -13 85 -18 25 -6 97 -20 160 -32
63 -11 133 -24 156 -28 22 -4 56 -19 76 -34 26 -20 47 -27 79 -27 38 0 50 5
80 36 30 30 34 42 34 85 0 45 -4 54 -36 82 -128 113 -168 147 -173 147 -3 0
-30 24 -59 53 -30 28 -63 59 -74 67 -11 8 -57 49 -103 90 -45 41 -95 86 -110
100 -15 14 -57 52 -94 85 -37 33 -91 83 -120 110 -29 28 -88 81 -130 120 -43
38 -94 86 -115 105 -20 19 -72 67 -114 105 -43 39 -106 97 -141 130 -63 60
-88 83 -291 270 -131 121 -148 137 -316 295 -73 69 -164 154 -203 190 -39 36
-95 88 -126 117 -30 28 -73 67 -95 86 l-40 35 28 22 c22 18 26 27 22 53 -10
58 -31 69 -136 71 -52 2 -112 8 -134 14 -22 6 -67 16 -100 22 -33 7 -82 21
-109 31 -27 10 -56 19 -64 19 -9 0 -59 13 -111 29 -112 34 -176 51 -211 55
-14 1 -35 8 -48 15 -12 6 -27 9 -32 6 -5 -3 -19 -1 -30 5 -12 6 -40 14 -63 17
-23 2 -51 6 -62 8 -226 40 -397 66 -465 71 -81 6 -86 8 -114 42 -29 34 -31 34
-88 29 -41 -4 -90 -19 -156 -50 -53 -25 -117 -53 -142 -62 -50 -19 -59 -23
-150 -60 -36 -15 -77 -33 -92 -41 -14 -8 -31 -14 -37 -14 -6 0 -30 -8 -54 -19
-86 -38 -152 -64 -266 -102 -64 -22 -127 -46 -141 -53 -14 -8 -86 -33 -160
-56 -74 -23 -144 -45 -155 -50 -24 -11 -204 -70 -225 -75 -23 -5 -141 -46
-175 -61 -16 -7 -50 -20 -75 -28 -80 -27 -124 -44 -175 -66 -27 -12 -75 -30
-105 -41 -111 -37 -145 -51 -160 -64 -22 -19 -202 -93 -265 -108 -5 -1 -16 -6
-23 -11 -7 -4 -25 -11 -40 -16 -15 -5 -70 -24 -122 -43 -224 -80 -301 -107
-395 -136 -55 -18 -109 -36 -120 -40 -17 -8 -252 -86 -280 -94 -5 -1 -16 -6
-22 -10 -7 -5 -21 -10 -30 -12 -10 -2 -43 -13 -73 -25 -30 -12 -62 -23 -70
-25 -8 -1 -33 -11 -55 -20 -66 -29 -98 -42 -140 -58 -81 -30 -130 -49 -146
-57 -8 -4 -47 -20 -85 -35 -79 -30 -155 -61 -199 -80 -16 -8 -73 -30 -125 -50
-52 -20 -124 -48 -160 -63 -36 -15 -67 -27 -70 -28 -3 0 -16 -5 -30 -11 -24
-10 -60 -24 -152 -59 -24 -9 -56 -22 -73 -29 -29 -12 -64 -26 -157 -61 -24 -9
-61 -24 -83 -34 -22 -10 -83 -34 -135 -54 -52 -20 -113 -46 -134 -57 -21 -11
-40 -18 -40 -17 -1 2 -12 35 -24 73 -55 177 -74 242 -78 263 -3 13 -11 40 -18
60 -8 20 -29 84 -46 142 -18 58 -35 112 -38 120 -3 8 -6 20 -8 25 -1 6 -25 89
-54 185 -28 96 -53 180 -54 185 -14 53 -28 103 -33 115 -3 8 -8 22 -9 30 -4
15 -54 199 -98 360 -13 47 -42 150 -65 230 -24 80 -51 177 -62 215 -11 39 -37
124 -58 190 -22 66 -49 156 -61 200 -12 44 -25 87 -28 95 -3 8 -11 33 -17 55
-7 22 -24 71 -38 108 -27 73 -90 291 -127 442 -12 50 -24 97 -27 105 -3 8 -7
20 -9 25 -25 95 -128 395 -162 470 -47 104 -172 316 -243 411 -67 90 -177 201
-254 259 -22 17 -41 33 -43 38 -2 4 -8 7 -13 7 -7 0 -96 57 -109 70 -3 3 -66
35 -140 72 -173 85 -312 130 -460 148 -106 13 -342 10 -426 -5z"/>
</g>
</svg>
