<?xml version="1.0" standalone="no"?>
<!DOCTYPE svg PUBLIC "-//W3C//DTD SVG 20010904//EN"
 "http://www.w3.org/TR/2001/REC-SVG-20010904/DTD/svg10.dtd">
<svg version="1.0" xmlns="http://www.w3.org/2000/svg"
 width="2843.000000pt" height="2843.000000pt" viewBox="0 0 2843.000000 2843.000000"
 preserveAspectRatio="xMidYMid meet">
<metadata>
Created by potrace 1.14, written by Peter Selinger 2001-2017
</metadata>
<g transform="translate(0.000000,2843.000000) scale(0.100000,-0.100000)"
fill="#000000" stroke="none">
<path d="M18793 23287 c-29 -5 -44 -16 -57 -39 -18 -29 -19 -58 -16 -452 3
-538 3 -838 -1 -1311 -3 -414 0 -444 49 -469 21 -10 89 -13 304 -12 297 2 299
2 320 56 7 16 10 277 9 750 -1 499 2 733 10 751 5 15 21 31 34 37 35 16 1763
15 1795 -1 13 -7 28 -28 35 -47 8 -25 10 -238 9 -750 -1 -393 2 -724 6 -735
12 -31 44 -63 73 -74 14 -6 99 -26 189 -47 617 -138 1313 -434 1853 -789 190
-125 208 -127 307 -41 24 21 99 91 168 155 69 65 154 144 189 177 35 32 76 70
90 84 14 14 78 72 141 130 63 58 127 116 141 130 79 76 242 225 250 228 5 2
43 -29 86 -69 92 -84 450 -445 577 -580 240 -256 387 -409 554 -578 100 -102
183 -189 183 -193 8 -56 8 -55 -159 -263 -30 -37 -429 -546 -446 -568 -11 -16
-26 -34 -31 -40 -21 -24 -61 -74 -85 -107 -14 -18 -47 -61 -74 -94 -57 -72
-78 -116 -72 -152 3 -15 24 -57 48 -95 110 -178 137 -225 218 -389 98 -195
160 -332 160 -349 0 -6 5 -11 10 -11 6 0 10 -7 10 -15 0 -8 10 -36 21 -62 12
-27 25 -57 29 -68 5 -11 15 -36 23 -55 146 -340 308 -881 416 -1384 9 -41 23
-69 46 -95 l33 -36 721 0 721 0 27 -28 28 -27 1 -1043 c2 -1137 4 -1096 -54
-1113 -15 -4 -350 -8 -744 -8 -708 -1 -717 -1 -745 -22 -31 -22 -59 -72 -67
-119 -3 -16 -19 -79 -36 -140 -17 -60 -33 -119 -35 -130 -15 -63 -137 -418
-166 -482 -10 -23 -19 -45 -19 -48 0 -3 -25 -66 -56 -138 -116 -272 -301 -630
-474 -912 -112 -183 -122 -204 -115 -249 6 -44 33 -89 92 -152 21 -23 52 -57
68 -75 87 -99 182 -205 195 -219 8 -9 42 -47 75 -84 33 -38 65 -74 71 -80 5
-6 34 -38 64 -71 60 -68 201 -223 243 -268 43 -46 58 -82 48 -109 -5 -13 -267
-280 -583 -593 -316 -314 -603 -604 -638 -645 -82 -96 -138 -150 -156 -151 -8
-1 -20 -2 -26 -3 -23 -4 -62 22 -173 114 -60 50 -117 96 -125 103 -8 7 -173
143 -367 304 -193 160 -361 297 -374 303 -39 22 -86 3 -256 -103 -320 -198
-552 -318 -828 -427 -66 -26 -129 -51 -140 -55 -11 -4 -24 -9 -30 -11 -5 -2
-64 -22 -130 -45 -212 -74 -460 -144 -720 -204 -193 -45 -223 -57 -240 -98
-10 -25 -12 -160 -11 -626 1 -373 -3 -606 -9 -625 -6 -17 -22 -36 -36 -43 -31
-15 15 -15 -981 -13 l-797 0 -28 24 -28 24 -2 399 c0 219 -1 412 -2 429 -1 17
-10 42 -22 55 l-21 24 -286 1 c-158 1 -295 -3 -305 -8 -9 -5 -25 -20 -34 -34
-14 -22 -16 -55 -14 -267 4 -289 4 -697 1 -1012 -3 -246 1 -272 45 -301 23
-15 143 -16 1570 -16 1144 0 1552 3 1573 11 59 24 56 -6 57 746 0 631 1 693
17 717 14 21 41 32 170 68 460 128 827 275 1257 505 90 49 135 56 184 30 22
-11 187 -143 264 -210 6 -5 109 -89 229 -185 119 -96 286 -233 371 -305 198
-167 242 -195 288 -185 51 12 17 -21 679 654 71 72 363 369 650 659 874 887
944 959 948 976 8 29 -11 75 -44 112 -28 30 -147 161 -213 233 -11 12 -49 55
-85 95 -36 40 -76 85 -90 100 -14 15 -59 65 -101 111 -144 161 -283 315 -319
353 -45 49 -90 115 -91 136 -7 79 1 98 121 306 44 76 183 349 185 365 1 3 8
21 17 40 8 19 30 71 48 115 18 44 36 89 41 100 19 43 73 197 126 355 59 179
70 201 110 227 25 17 80 18 829 18 788 0 802 0 824 20 12 11 27 31 32 45 6 15
9 243 8 595 -2 627 -2 1353 0 2236 1 426 -2 583 -11 602 -25 56 -6 55 -858 55
l-785 -1 -21 25 c-12 14 -42 99 -74 209 -87 300 -260 809 -311 914 -5 11 -30
70 -55 130 -26 61 -94 206 -152 322 -105 211 -106 213 -94 253 6 22 40 74 74
117 34 43 71 90 82 104 11 15 185 239 388 498 202 259 376 485 386 502 18 30
19 66 3 95 -4 7 -56 63 -117 126 -60 63 -133 141 -162 174 -58 67 -296 309
-943 961 -402 406 -669 680 -885 910 -88 94 -131 120 -176 104 -27 -9 -187
-134 -289 -225 -62 -56 -288 -264 -414 -381 -12 -11 -49 -45 -82 -75 -32 -30
-124 -116 -202 -189 -163 -153 -171 -160 -192 -161 -8 0 -143 64 -300 143
-427 214 -716 332 -1114 453 -55 16 -100 37 -120 54 l-31 28 0 819 c0 765 -1
821 -18 846 -9 15 -28 29 -41 33 -36 9 -3068 10 -3113 1z"/>
<path d="M18699 19418 c-1 -591 1 -1829 4 -2408 1 -206 -1 -391 -4 -411 -9
-53 -38 -107 -70 -129 -72 -52 -84 -53 -529 -51 -228 0 -1177 1 -2108 1 -1643
1 -2251 -3 -2417 -15 -147 -10 -200 -14 -235 -19 -19 -3 -56 -8 -82 -11 -79
-9 -142 -17 -163 -21 -11 -3 -36 -7 -55 -10 -19 -3 -94 -20 -167 -39 -546
-140 -950 -477 -1136 -950 -38 -94 -81 -236 -91 -295 -3 -19 -7 -44 -10 -55
-2 -11 -7 -45 -11 -75 -4 -30 -10 -66 -12 -80 -9 -53 -9 -390 -1 -480 7 -76
34 -214 62 -320 60 -228 225 -502 403 -670 102 -97 129 -118 232 -187 248
-166 598 -293 932 -338 25 -3 57 -8 70 -10 43 -7 116 -15 175 -20 33 -3 82 -7
109 -10 140 -13 361 -18 1005 -20 388 -1 730 -5 760 -9 252 -30 378 -64 545
-146 260 -128 398 -324 404 -578 9 -360 -228 -607 -689 -716 -58 -14 -132 -28
-165 -32 -33 -3 -69 -9 -80 -12 -11 -3 -785 -6 -1720 -8 -935 -1 -2015 -4
-2400 -5 -660 -2 -703 -1 -745 16 -68 28 -93 49 -117 97 -38 76 -38 89 -26
647 17 853 2 1588 -41 1941 -2 14 -7 52 -11 85 -4 33 -14 98 -22 145 -8 47
-17 99 -19 115 -3 17 -10 48 -16 70 -5 22 -12 50 -14 62 -10 54 -77 271 -115
375 -52 139 -165 363 -244 483 -255 387 -611 679 -1059 869 -93 40 -298 109
-361 122 -11 2 -47 10 -80 18 -33 9 -76 18 -95 21 -19 3 -57 10 -85 15 -27 5
-72 12 -100 16 -27 3 -61 7 -75 9 -166 24 -639 25 -766 1 -16 -3 -85 -13 -149
-22 -11 -1 -36 -5 -55 -9 -19 -4 -44 -8 -55 -9 -107 -15 -412 -109 -561 -172
-346 -148 -600 -336 -833 -617 -121 -146 -146 -147 -271 -13 -254 272 -427
414 -669 551 -222 125 -537 233 -789 271 -20 3 -64 9 -97 14 -185 28 -673 32
-811 6 -11 -2 -50 -7 -87 -11 -37 -3 -76 -8 -85 -10 -9 -1 -42 -6 -72 -10 -30
-4 -64 -9 -75 -11 -11 -3 -36 -7 -55 -10 -19 -3 -53 -10 -75 -16 -22 -5 -51
-12 -65 -14 -46 -8 -254 -76 -340 -111 -283 -117 -522 -276 -740 -493 -252
-251 -428 -518 -562 -855 -36 -89 -111 -318 -123 -370 -2 -11 -11 -51 -19 -90
-8 -38 -18 -86 -21 -105 -3 -19 -8 -42 -10 -50 -2 -8 -7 -37 -10 -65 -4 -27
-8 -61 -10 -75 -4 -26 -13 -126 -20 -216 -9 -115 -22 -362 -31 -624 -4 -96 -7
-1496 -8 -3110 l-1 -2935 -35 -20 c-111 -64 -243 -186 -324 -300 -80 -111
-161 -292 -181 -404 -2 -14 -9 -47 -13 -73 -17 -91 -12 -276 12 -404 21 -113
105 -298 183 -407 60 -83 193 -213 271 -266 138 -93 343 -170 496 -187 342
-36 668 77 906 316 211 210 321 471 324 765 1 148 -6 204 -40 325 -73 253
-243 480 -470 625 l-55 35 5 3048 c3 1676 7 3079 9 3117 3 39 8 135 12 215 15
328 19 366 51 526 54 273 156 499 319 709 186 239 434 414 724 511 178 60 301
79 511 79 173 0 228 -6 380 -39 651 -141 1139 -686 1250 -1396 6 -41 15 -86
18 -100 4 -14 7 -738 8 -1610 1 -1452 4 -1707 19 -1780 3 -14 7 -35 9 -48 3
-12 7 -26 10 -31 4 -5 -26 -32 -64 -61 -190 -141 -313 -341 -365 -595 -19 -92
-11 -271 19 -403 16 -71 82 -214 133 -288 69 -101 194 -222 278 -268 17 -9 48
-27 70 -39 212 -119 520 -135 770 -40 313 119 546 411 593 742 8 60 8 214 0
271 -34 232 -159 453 -338 597 l-65 52 1 1533 c1 1561 4 1748 29 1928 3 19 7
58 11 85 15 129 59 304 110 439 145 379 411 687 754 873 67 36 246 110 283
117 15 2 31 7 37 11 11 7 179 40 255 51 138 18 360 8 520 -25 203 -41 434
-150 610 -286 81 -63 217 -197 276 -270 199 -250 359 -639 395 -960 3 -33 8
-68 10 -77 14 -75 18 -441 18 -1603 -1 -737 -2 -1423 -3 -1525 -3 -206 2 -265
32 -328 29 -64 82 -97 182 -117 17 -3 212 -5 435 -4 223 0 1528 2 2900 4 1372
1 2524 5 2560 9 36 3 96 9 134 12 38 3 78 8 89 10 11 2 45 6 76 10 31 3 59 8
62 10 3 1 28 6 55 10 27 3 52 8 55 10 4 2 23 6 44 10 21 3 92 21 159 40 66 19
129 36 139 39 42 10 258 101 317 133 303 164 504 368 649 658 46 90 113 273
124 334 3 14 12 52 20 85 8 33 18 80 22 105 4 25 9 53 11 64 19 104 25 369 11
516 -5 46 -10 87 -13 91 -2 4 -6 24 -10 45 -3 22 -10 57 -16 79 -5 22 -10 41
-9 42 0 2 -13 40 -29 86 -40 113 -124 289 -163 342 -4 5 -27 38 -52 72 -226
314 -567 544 -1005 676 -100 30 -241 64 -305 73 -11 1 -35 5 -52 8 -74 13
-148 22 -353 42 -41 4 -415 8 -830 9 -763 2 -822 4 -1030 31 -490 64 -792 291
-838 629 -44 324 114 574 451 719 79 34 186 69 242 80 11 2 31 7 45 10 35 8
77 15 135 21 28 3 66 8 85 11 19 3 964 8 2100 10 1136 2 2211 5 2390 7 410 4
474 -6 533 -85 53 -71 50 53 52 -2418 1 -1268 5 -2321 9 -2340 30 -145 62
-206 128 -244 53 -30 104 -44 199 -53 91 -8 466 -9 532 0 102 13 167 68 182
153 4 21 6 244 5 494 -3 564 -3 1014 0 1635 1 264 -1 505 -5 536 -7 65 12 124
48 150 22 17 25 15 88 -43 162 -152 224 -210 330 -308 62 -58 134 -124 159
-147 64 -60 103 -96 215 -198 54 -49 108 -99 120 -110 11 -11 50 -47 86 -80
35 -33 125 -116 199 -185 74 -69 146 -136 161 -150 219 -204 408 -388 784
-764 248 -248 484 -480 525 -516 41 -36 77 -67 80 -70 17 -19 226 -170 234
-170 4 0 127 190 151 232 6 10 57 93 115 184 58 91 112 177 120 190 8 13 52
83 98 156 l83 131 -53 50 c-29 27 -114 107 -188 177 -74 70 -155 147 -180 170
-39 37 -181 170 -355 335 -110 103 -352 333 -425 401 -41 40 -91 86 -110 104
-19 18 -96 90 -170 160 -74 70 -151 142 -170 160 -19 18 -88 82 -154 144 -65
61 -133 125 -150 141 -18 17 -85 80 -150 140 -65 61 -135 126 -156 145 -436
400 -493 456 -521 511 -51 100 -20 145 221 329 39 30 107 82 149 115 43 33 90
69 106 80 15 11 53 40 84 65 32 25 70 54 85 65 16 11 33 25 40 30 6 6 97 76
201 156 183 141 794 616 825 642 8 7 116 91 240 188 464 362 701 545 762 589
60 44 119 113 132 156 l6 21 -772 -1 c-879 -2 -792 7 -923 -97 -44 -34 -84
-67 -90 -71 -52 -40 -97 -75 -275 -209 -113 -86 -254 -193 -315 -239 -60 -46
-270 -206 -465 -355 -535 -407 -542 -412 -585 -450 -49 -43 -138 -91 -191
-103 l-41 -9 -1 2516 c0 1384 -1 2522 -1 2529 -1 9 -114 12 -531 12 l-530 0
-1 -532z m-13025 -9218 c77 -25 195 -100 246 -157 64 -70 119 -163 146 -246
22 -68 27 -100 27 -192 0 -94 -4 -122 -27 -190 -125 -366 -511 -538 -864 -383
-136 60 -262 190 -318 329 -70 173 -66 352 12 514 80 165 212 278 391 336 84
27 292 21 387 -11z m-4419 -3226 c85 -17 196 -63 267 -112 234 -162 359 -450
313 -722 -72 -424 -465 -696 -883 -610 -451 92 -708 580 -531 1007 99 236 338
421 584 448 33 4 61 8 62 9 7 6 118 -6 188 -20z"/>
</g>
</svg>
